<?xml version="1.0" encoding="iso-8859-1"?>
<svg version="1.1" id="Layer_1" xmlns="http://www.w3.org/2000/svg" xmlns:xlink="http://www.w3.org/1999/xlink" x="0px" y="0px"
	 viewBox="0 0 512 512" style="enable-background:new 0 0 512 512;" xml:space="preserve">
		<path d="M384.977,276.115c-0.33-0.902-33.149-90.694-47.603-132.749c-9.325-27.136-24.962-40.895-46.474-40.895
			c-29.934,0-39.899,0-69.8,0c-21.512,0-37.149,13.759-46.474,40.895c-14.452,42.055-47.272,131.848-47.603,132.749
			c-3.812,10.425,1.549,21.968,11.975,25.779c10.425,3.812,21.968-1.551,25.779-11.975c0.273-0.748,22.776-62.314,38.824-107.645
			c1.435,4.712,4.37,8.758,8.233,11.627l0.048,29.451l-34.573,87.18c-1.885,4.755,0.875,10.067,5.834,11.259
			c5.161,1.24,11.996,2.93,19.41,4.782V487.88c0,13.321,10.799,24.12,24.12,24.12c13.321,0,24.12-10.799,24.12-24.12V337.975
			c3.464,0.307,6.948,0.305,10.413-0.006V487.88c0,13.321,10.799,24.12,24.12,24.12c13.321,0,24.12-10.799,24.12-24.12V326.551
			c7.407-1.852,14.236-3.538,19.398-4.776c4.924-1.18,7.731-6.492,5.84-11.261l-34.567-87.163l0.048-29.451
			c3.864-2.868,6.797-6.914,8.233-11.627c16.047,45.331,38.551,106.897,38.824,107.645c3.812,10.426,15.354,15.787,25.779,11.975
			C383.428,298.083,388.789,286.54,384.977,276.115z"/>
		<circle cx="256" cy="43.898" r="43.898"/>
</svg>
