<svg enable-background="new 0 0 64 64" height="512" viewBox="0 0 64 64" width="512" xmlns="http://www.w3.org/2000/svg"><g fill="#fff"><path d="m40 19c.553 0 1 .448 1 1v8c0 .552-.447 1-1 1h-5v2h5c.553 0 1 .448 1 1v8c0 .552-.447 1-1 1h-5v2h24v-26h-34v2h9zm3 1c0-.552.447-1 1-1h12c.553 0 1 .448 1 1v8c0 .552-.447 1-1 1h-12c-.553 0-1-.448-1-1zm0 12c0-.552.447-1 1-1h12c.553 0 1 .448 1 1v8c0 .552-.447 1-1 1h-12c-.553 0-1-.448-1-1z"/><path d="m59 57v-12h-24v12h2v-5c0-2.757 2.243-5 5-5s5 2.243 5 5v5z"/><path d="m40 7c-.552 0-1 .449-1 1v1h2v-1c0-.551-.448-1-1-1z"/><path d="m35 33h4v6h-4z"/><path d="m39 52v5h6v-5c0-1.654-1.346-3-3-3s-3 1.346-3 3z"/><path d="m45 33h4v6h-4z"/><path d="m45 21h4v6h-4z"/><path d="m51 21h4v6h-4z"/><path d="m59 3h-34v12h34zm-24 10h-2v-2.764l-.105.211c-.34.678-1.449.678-1.789 0l-.106-.211v2.764h-2v-7c0-.464.319-.867.771-.973.448-.107.917.111 1.124.526l1.105 2.211 1.105-2.211c.207-.415.676-.634 1.124-.526.452.106.771.509.771.973zm8 0h-2v-2h-2v2h-2v-5c0-1.654 1.346-3 3-3s3 1.346 3 3zm6 0h-3c-.553 0-1-.448-1-1v-7h2v6h2zm6 0h-3c-.553 0-1-.448-1-1v-7h2v6h2z"/><path d="m35 21h4v6h-4z"/><path d="m51 33h4v6h-4z"/><path d="m5 35h8v8h-8z"/><path d="m12 48c0-.552.447-1 1-1h12c.553 0 1 .448 1 1v9h7v-12h-28v12h7z"/><path d="m20 49h4v8h-4z"/><path d="m14 49h4v8h-4z"/><path d="m3 59h58v2h-58z"/><path d="m15 35h8v8h-8z"/><path d="m25 35h8v8h-8z"/><path d="m5 25h8v8h-8z"/><path d="m25 25h8v8h-8z"/><path d="m5 21h28v2h-28z"/><path d="m15 25h8v8h-8z"/></g></svg>