<?xml version="1.0" encoding="iso-8859-1"?>
<svg version="1.1" id="Layer_1" xmlns="http://www.w3.org/2000/svg" xmlns:xlink="http://www.w3.org/1999/xlink" x="0px" y="0px"
	 viewBox="0 0 300.139 300.139" style="enable-background:new 0 0 300.139 300.139;" xml:space="preserve">
<g fill="#fff">
    <circle cx="120.349" cy="27.18" r="27.18"/>
    <path d="M70.325,217.79c-22.704,0-41.175,18.471-41.175,41.175s18.471,41.175,41.175,41.175s41.175-18.471,41.175-41.175
        S93.029,217.79,70.325,217.79z M70.325,270.695c-6.468,0-11.731-5.262-11.731-11.731s5.262-11.731,11.731-11.731
        s11.731,5.262,11.731,11.731S76.793,270.695,70.325,270.695z"/>
    <path d="M297.646,218.447c-11.582-13.042-28.223-20.522-45.653-20.522c-0.702,0-1.397,0.029-2.094,0.053
        c-9.389-26.751-28.854-38.932-39.949-43.895l-2.402-7.462h6.626c2.662,6.083,8.73,10.336,15.795,10.336h8.274
        c2.38,0,4.309-1.929,4.309-4.309v-25.854c0-2.38-1.929-4.309-4.309-4.309h-8.274c-5.117,0-9.712,2.232-12.869,5.774
        c-1.201,1.347-2.193,2.885-2.926,4.562h-10.992c1.158-1.997,1.775-4.339,1.643-6.817c-0.361-6.791-6.167-12.007-12.951-11.642
        l-42.535,2.264l-23.836-32.034l19.963,15.894l1.031-11.749c0.886-10.102-6.584-19.009-16.685-19.895L97.194,65.98
        c-10.102-0.886-19.009,6.584-19.895,16.685l-5.461,62.245c-0.896,10.206,3.185,20.129,10.874,26.777
        c0.501,0.79,1.073,1.528,1.711,2.209H70.594h-37.84c-5.109,0-9.251,4.142-9.251,9.251v23.864
        c-12.424,11.204-20.811,26.8-22.71,44.342c-0.21,1.938,0.415,3.873,1.716,5.324c1.301,1.451,3.159,2.288,5.108,2.288h12.915
        c0-27.456,22.337-49.793,49.793-49.793s49.793,22.337,49.793,49.793h0.231v0.001c0,3.609,2.926,6.534,6.535,6.534
        c18.001,0,62.281,0,68.765,0c6.07,0.368,9.116-2.919,9.116-7.614c0-26.047,21.178-46.16,47.226-46.16
        c13.49,0,26.369,5.79,35.334,15.885c2.531,2.848,6.893,3.107,9.742,0.577C299.918,225.658,300.176,221.296,297.646,218.447z
         M139.886,251.698L139.886,251.698c-0.83-8.038-3.021-15.672-6.34-22.667v-0.01c-4.261-8.984-10.529-17.196-18.505-23.834
        c0-9.849,0-16.113,0-24.647l30.908,2.636l-0.784,61.896c-0.03,2.378,0.517,4.625,1.49,6.627H139.886z M191.4,251.699h-5.646
        h-12.522c0.919-1.893,1.456-4.009,1.485-6.253l0.957-75.581c0.098-7.722-5.766-14.217-13.458-14.906l-22.658-0.82
        c-7.11,0.378-13.401-3.909-15.919-10.165l-17.898-44.681l27.776,37.33c2.432,3.268,6.363,5.166,10.534,4.945l46.57-2.479
        l3.897,12.107l19.36,60.139C201.702,221.101,193.34,235.424,191.4,251.699z"/>
    <path d="M251.992,217.79c-22.704,0-41.175,18.471-41.175,41.175s18.471,41.175,41.175,41.175s41.175-18.471,41.175-41.175
        S274.696,217.79,251.992,217.79z M251.992,270.695c-6.468,0-11.731-5.262-11.731-11.731s5.262-11.731,11.731-11.731
        c6.468,0,11.73,5.262,11.73,11.731S258.461,270.695,251.992,270.695z"/>
</g>
</svg>
